<svg width="488pt" height="401pt" class="g"
 viewBox="0.00 0.00 488.00 401.00" xmlns="http://www.w3.org/2000/svg" xmlns:xlink="http://www.w3.org/1999/xlink">
<g id="graph0" class="graph" transform="scale(1 1) rotate(0) translate(7.2 394.2)">
<title>G</title>
<g id="clust1" class="cluster">
<title>cluster_Origin$0</title>
<path fill="none" stroke="#b9b4a7" stroke-dasharray="5,2" d="M128.38,-8C128.38,-8 214.88,-8 214.88,-8 220.88,-8 226.88,-14 226.88,-20 226.88,-20 226.88,-67 226.88,-67 226.88,-73 220.88,-79 214.88,-79 214.88,-79 128.38,-79 128.38,-79 122.38,-79 116.38,-73 116.38,-67 116.38,-67 116.38,-20 116.38,-20 116.38,-14 122.38,-8 128.38,-8"/>
<text xml:space="preserve" text-anchor="middle" x="171.62" y="-65.5" font-family="Helvetica,sans-Serif" font-size="10.00" fill="#5b5a55">O1 · whole&#45;only client</text>
</g>
<g id="clust2" class="cluster">
<title>cluster_Origin$1</title>
<path fill="none" stroke="#b9b4a7" stroke-dasharray="5,2" d="M121.75,-248C121.75,-248 453.25,-248 453.25,-248 459.25,-248 465.25,-254 465.25,-260 465.25,-260 465.25,-367 465.25,-367 465.25,-373 459.25,-379 453.25,-379 453.25,-379 121.75,-379 121.75,-379 115.75,-379 109.75,-373 109.75,-367 109.75,-367 109.75,-260 109.75,-260 109.75,-254 115.75,-248 121.75,-248"/>
<text xml:space="preserve" text-anchor="middle" x="287.5" y="-365.5" font-family="Helvetica,sans-Serif" font-size="10.00" fill="#5b5a55">O2 · whole&#45;only client</text>
</g>
<g id="clust3" class="cluster">
<title>cluster_Origin$2</title>
<path fill="none" stroke="#b9b4a7" stroke-dasharray="5,2" d="M117.75,-87C117.75,-87 224.5,-87 224.5,-87 230.5,-87 236.5,-93 236.5,-99 236.5,-99 236.5,-228 236.5,-228 236.5,-234 230.5,-240 224.5,-240 224.5,-240 117.75,-240 117.75,-240 111.75,-240 105.75,-234 105.75,-228 105.75,-228 105.75,-99 105.75,-99 105.75,-93 111.75,-87 117.75,-87"/>
<text xml:space="preserve" text-anchor="middle" x="171.12" y="-226.5" font-family="Helvetica,sans-Serif" font-size="10.00" fill="#5b5a55">O3 · partial&#45;aware</text>
</g>
<!-- Origin$0 -->
<g id="node1" class="node">
<title>Origin$0</title>
<polygon fill="#f1efe9" stroke="#5b5a55" points="192.12,-52 144.12,-52 144.12,-16 198.12,-16 198.12,-46 192.12,-52"/>
<polyline fill="none" stroke="#5b5a55" points="192.12,-52 192.12,-46"/>
<polyline fill="none" stroke="#5b5a55" points="198.12,-46 192.12,-46"/>
<text xml:space="preserve" text-anchor="middle" x="171.12" y="-30.12" font-family="Helvetica,sans-Serif" font-size="10.00">O1 store</text>
</g>
<!-- Origin$1 -->
<g id="node2" class="node">
<title>Origin$1</title>
<polygon fill="#f1efe9" stroke="#5b5a55" points="192.12,-292 144.12,-292 144.12,-256 198.12,-256 198.12,-286 192.12,-292"/>
<polyline fill="none" stroke="#5b5a55" points="192.12,-292 192.12,-286"/>
<polyline fill="none" stroke="#5b5a55" points="198.12,-286 192.12,-286"/>
<text xml:space="preserve" text-anchor="middle" x="171.12" y="-270.12" font-family="Helvetica,sans-Serif" font-size="10.00">O2 store</text>
</g>
<!-- Version$2 -->
<g id="node3" class="node">
<title>Version$2</title>
<path fill="#ffffff" stroke="#5b5a55" d="M445.25,-297.88C445.25,-297.88 340.75,-297.88 340.75,-297.88 334.75,-297.88 328.75,-291.88 328.75,-285.88 328.75,-285.88 328.75,-268.12 328.75,-268.12 328.75,-262.12 334.75,-256.12 340.75,-256.12 340.75,-256.12 445.25,-256.12 445.25,-256.12 451.25,-256.12 457.25,-262.12 457.25,-268.12 457.25,-268.12 457.25,-285.88 457.25,-285.88 457.25,-291.88 451.25,-297.88 445.25,-297.88"/>
<text xml:space="preserve" text-anchor="middle" x="393" y="-284.38" font-family="Helvetica,sans-Serif" font-size="10.00">B v1</text>
<text xml:space="preserve" text-anchor="middle" x="393" y="-273.12" font-family="Helvetica,sans-Serif" font-size="10.00">fragment</text>
<text xml:space="preserve" text-anchor="middle" x="393" y="-261.88" font-family="Helvetica,sans-Serif" font-size="10.00">text: Passage1,Passage0</text>
</g>
<!-- Version$3 -->
<g id="node4" class="node">
<title>Version$3</title>
<path fill="#ffffff" stroke="#a23b3b" stroke-width="2.5" d="M212.5,-351.88C212.5,-351.88 129.75,-351.88 129.75,-351.88 123.75,-351.88 117.75,-345.88 117.75,-339.88 117.75,-339.88 117.75,-322.12 117.75,-322.12 117.75,-316.12 123.75,-310.12 129.75,-310.12 129.75,-310.12 212.5,-310.12 212.5,-310.12 218.5,-310.12 224.5,-316.12 224.5,-322.12 224.5,-322.12 224.5,-339.88 224.5,-339.88 224.5,-345.88 218.5,-351.88 212.5,-351.88"/>
<text xml:space="preserve" text-anchor="middle" x="171.12" y="-338.38" font-family="Helvetica,sans-Serif" font-size="10.00">C v1</text>
<text xml:space="preserve" text-anchor="middle" x="171.12" y="-327.12" font-family="Helvetica,sans-Serif" font-size="10.00">thread</text>
<text xml:space="preserve" text-anchor="middle" x="171.12" y="-315.88" font-family="Helvetica,sans-Serif" font-size="10.00">md: ![[B]]&gt;Passage0</text>
</g>
<!-- Version$3&#45;&gt;Version$2 -->
<g id="edge2" class="edge">
<title>Version$3&#45;&gt;Version$2</title>
<path fill="none" stroke="#2b5bab" d="M225.63,-317.86C253.26,-311.07 287.4,-302.69 317.56,-295.28"/>
<polygon fill="#2b5bab" stroke="#2b5bab" points="318.12,-298.75 327,-292.96 316.45,-291.95 318.12,-298.75"/>
<text xml:space="preserve" text-anchor="middle" x="280.12" y="-313.19" font-family="Helvetica,sans-Serif" font-size="9.00" fill="#2b5bab">quotes</text>
</g>
<!-- Version$0 -->
<g id="node6" class="node">
<title>Version$0</title>
<path fill="#e3ecf9" stroke="#5b5a55" d="M212.5,-155C212.5,-155 129.75,-155 129.75,-155 123.75,-155 117.75,-149 117.75,-143 117.75,-143 117.75,-111 117.75,-111 117.75,-105 123.75,-99 129.75,-99 129.75,-99 212.5,-99 212.5,-99 218.5,-99 224.5,-105 224.5,-111 224.5,-111 224.5,-143 224.5,-143 224.5,-149 218.5,-155 212.5,-155"/>
<path fill="none" stroke="#5b5a55" d="M216.5,-159C216.5,-159 125.75,-159 125.75,-159 119.75,-159 113.75,-153 113.75,-147 113.75,-147 113.75,-107 113.75,-107 113.75,-101 119.75,-95 125.75,-95 125.75,-95 216.5,-95 216.5,-95 222.5,-95 228.5,-101 228.5,-107 228.5,-107 228.5,-147 228.5,-147 228.5,-153 222.5,-159 216.5,-159"/>
<text xml:space="preserve" text-anchor="middle" x="171.12" y="-141.5" font-family="Helvetica,sans-Serif" font-size="10.00">A v1</text>
<text xml:space="preserve" text-anchor="middle" x="171.12" y="-130.25" font-family="Helvetica,sans-Serif" font-size="10.00">thread</text>
<text xml:space="preserve" text-anchor="middle" x="171.12" y="-119" font-family="Helvetica,sans-Serif" font-size="10.00">📌 pinned</text>
<text xml:space="preserve" text-anchor="middle" x="171.12" y="-104.75" font-family="Helvetica,sans-Serif" font-size="10.00">md: ![[B]]&gt;Passage0</text>
</g>
<!-- Version$3&#45;&gt;Version$0 -->
<g id="edge3" class="edge">
<title>Version$3&#45;&gt;Version$0</title>
<path fill="none" stroke="#2f7a45" d="M116.81,-309.12C112.89,-306.64 109.15,-303.94 105.75,-301 80.8,-279.47 74.67,-270.46 65.29,-238.88 56.34,-208.73 77.96,-182.66 103.95,-163.3"/>
<polygon fill="#2f7a45" stroke="#2f7a45" points="105.88,-166.22 112.04,-157.6 101.85,-160.49 105.88,-166.22"/>
<text xml:space="preserve" text-anchor="middle" x="73.38" y="-230.32" font-family="Helvetica,sans-Serif" font-size="9.00" fill="#2f7a45">forked_from</text>
</g>
<!-- Origin$2 -->
<g id="node5" class="node">
<title>Origin$2</title>
<polygon fill="#f1efe9" stroke="#5b5a55" points="192.12,-213 144.12,-213 144.12,-177 198.12,-177 198.12,-207 192.12,-213"/>
<polyline fill="none" stroke="#5b5a55" points="192.12,-213 192.12,-207"/>
<polyline fill="none" stroke="#5b5a55" points="198.12,-207 192.12,-207"/>
<text xml:space="preserve" text-anchor="middle" x="171.12" y="-191.12" font-family="Helvetica,sans-Serif" font-size="10.00">O3 store</text>
</g>
<!-- Origin$2&#45;&gt;Version$2 -->
<g id="edge4" class="edge">
<title>Origin$2&#45;&gt;Version$2</title>
<path fill="none" stroke="#5b5a55" stroke-dasharray="1,5" d="M198.21,-204.73C229.04,-216.23 281.54,-235.8 324.12,-251.68"/>
<polygon fill="#5b5a55" stroke="#5b5a55" points="322.7,-254.89 333.29,-255.11 325.15,-248.33 322.7,-254.89"/>
<text xml:space="preserve" text-anchor="middle" x="280.12" y="-249.34" font-family="Helvetica,sans-Serif" font-size="9.00" fill="#5b5a55">holds</text>
</g>
<!-- Version$0&#45;&gt;Version$2 -->
<g id="edge1" class="edge">
<title>Version$0&#45;&gt;Version$2</title>
<path fill="none" stroke="#2b5bab" stroke-dasharray="5,2" d="M228.94,-156.6C255.99,-171.52 288.35,-190.6 315.75,-210.25 331.58,-221.61 347.99,-235.63 361.5,-247.88"/>
<polygon fill="#2b5bab" stroke="#2b5bab" points="359.09,-250.42 368.82,-254.61 363.83,-245.27 359.09,-250.42"/>
<text xml:space="preserve" text-anchor="middle" x="280.12" y="-211.45" font-family="Helvetica,sans-Serif" font-size="9.00" fill="#2b5bab">partial: Passage0</text>
</g>
</g>
</svg>
